<svg width="96" height="98" viewBox="0 0 96 98" fill="none" xmlns="http://www.w3.org/2000/svg">
<path fill-rule="evenodd" clip-rule="evenodd" d="M6.28935 42.2196H6.28931V82.4782V83.4486H6.31907C6.81866 91.5689 13.5455 97.9997 21.7705 97.9997C29.9956 97.9997 36.7224 91.5689 37.222 83.4486H37.2518V82.4782V42.2563C37.2518 42.2441 37.2518 42.2319 37.2518 42.2197C37.2518 33.6475 30.3206 26.6982 21.7706 26.6982C13.2206 26.6982 6.28942 33.6474 6.28935 42.2196Z" fill="#2FCCCE"/>
<path fill-rule="evenodd" clip-rule="evenodd" d="M32.8406 30.8829C26.7947 24.8215 16.9927 24.8216 10.9469 30.883C4.90109 36.9446 4.90109 46.7722 10.9469 52.8338C10.967 52.8539 10.9872 52.874 11.0074 52.8941L36.8345 78.7883L36.8372 78.7856C42.9002 84.6013 52.5182 84.5198 58.4815 78.5409C64.4448 72.5621 64.5262 62.9191 58.7255 56.8403L58.7282 56.8376L58.4892 56.598C58.4867 56.5954 58.4841 56.5928 58.4815 56.5902C58.4789 56.5876 58.4763 56.585 58.4737 56.5824L32.8407 30.8828L32.8406 30.8829Z" fill="url(#paint0_linear_126_506)"/>
<path fill-rule="evenodd" clip-rule="evenodd" d="M84.0781 52.8777C84.0929 52.863 84.1076 52.8482 84.1224 52.8334C90.1682 46.7719 90.1682 36.9442 84.1224 30.8827C78.0766 24.8212 68.2744 24.8212 62.2286 30.8827C62.2286 30.8827 62.2286 30.8827 62.2286 30.8827L62.2285 30.8826L36.5957 56.582C36.5931 56.5847 36.5904 56.5874 36.5877 56.5901C36.585 56.5928 36.5823 56.5955 36.5797 56.5981L36.341 56.8375L36.3437 56.8402C30.543 62.919 30.6244 72.562 36.5877 78.5408C42.551 84.5196 52.169 84.6012 58.232 78.7855L58.2347 78.7882L84.0781 52.8777Z" fill="#00BABC"/>
<path fill-rule="evenodd" clip-rule="evenodd" d="M58.0547 42.2196H58.0547V82.4782V83.4486H58.0844C58.584 91.5689 65.3109 97.9997 73.5359 97.9997C81.7609 97.9997 88.4878 91.5689 88.9874 83.4486H89.0172V82.4782V42.2537C89.0172 42.2424 89.0172 42.2311 89.0172 42.2197C89.0172 33.6475 82.086 26.6982 73.536 26.6982C64.986 26.6982 58.0548 33.6474 58.0547 42.2196Z" fill="#00BABC"/>
<ellipse cx="21.7705" cy="11.6616" rx="11.6109" ry="11.6411" fill="#D9D9D9"/>
<ellipse cx="73.5359" cy="11.6616" rx="11.6109" ry="11.6411" fill="#D9D9D9"/>
<defs>
<linearGradient id="paint0_linear_126_506" x1="10.9469" y1="30.883" x2="58.6049" y2="78.4175" gradientUnits="userSpaceOnUse">
<stop stop-color="#2FCCCE"/>
<stop offset="0.588542" stop-color="#00B3B5"/>
<stop offset="1" stop-color="#5AC9CA"/>
</linearGradient>
</defs>
</svg>
